<svg width="19" height="18" viewBox="0 0 19 18" fill="none" xmlns="http://www.w3.org/2000/svg">
<path d="M15.0748 15.75C13.4623 15.75 11.8906 15.3905 10.3596 14.6715C8.82805 13.953 7.4718 13.003 6.2908 11.8215C5.1093 10.6405 4.1593 9.28425 3.4408 7.75275C2.7218 6.22175 2.3623 4.65 2.3623 3.0375C2.3623 2.8125 2.4373 2.625 2.5873 2.475C2.7373 2.325 2.9248 2.25 3.1498 2.25H6.1873C6.36231 2.25 6.51856 2.30625 6.65605 2.41875C6.79355 2.53125 6.8748 2.675 6.89981 2.85L7.3873 5.475C7.4123 5.65 7.4093 5.80925 7.3783 5.95275C7.3468 6.09675 7.2748 6.225 7.1623 6.3375L5.3623 8.175C5.8873 9.075 6.54355 9.91875 7.33105 10.7062C8.11855 11.4937 8.98731 12.175 9.9373 12.75L11.6998 10.9875C11.8123 10.875 11.9593 10.7905 12.1408 10.734C12.3218 10.678 12.4998 10.6625 12.6748 10.6875L15.2623 11.2125C15.4373 11.25 15.5811 11.3342 15.6936 11.4653C15.8061 11.5967 15.8623 11.75 15.8623 11.925V14.9625C15.8623 15.1875 15.7873 15.375 15.6373 15.525C15.4873 15.675 15.2998 15.75 15.0748 15.75Z" fill="#00ADEE"/>
</svg>
